<mxfile host="app.diagrams.net" modified="2023-12-03T18:03:31.038Z" agent="Mozilla/5.0 (X11; Linux x86_64; rv:109.0) Gecko/20100101 Firefox/115.0" etag="5RsSGshMNCKbwtQqYcex" version="22.1.5" type="github">
  <diagram name="Página-1" id="XoftDs3j9hNS_kDx4S1m">
    <mxGraphModel dx="2049" dy="1031" grid="1" gridSize="10" guides="1" tooltips="1" connect="1" arrows="1" fold="1" page="1" pageScale="1" pageWidth="827" pageHeight="1169" math="0" shadow="0">
      <root>
        <mxCell id="0" />
        <mxCell id="1" parent="0" />
        <mxCell id="c3HBFg0HI2Npq5dBwJYc-27" value="Sistema Librería" style="shape=rect;html=1;verticalAlign=top;fontStyle=1;whiteSpace=wrap;align=center;fontFamily=Helvetica;fontSize=11;fontColor=default;" vertex="1" parent="1">
          <mxGeometry x="170" y="40" width="760" height="441" as="geometry" />
        </mxCell>
        <mxCell id="c3HBFg0HI2Npq5dBwJYc-14" style="edgeStyle=none;shape=connector;rounded=0;orthogonalLoop=1;jettySize=auto;html=1;labelBackgroundColor=default;strokeColor=default;align=center;verticalAlign=middle;fontFamily=Helvetica;fontSize=11;fontColor=default;endArrow=none;endFill=0;" edge="1" parent="1" source="c3HBFg0HI2Npq5dBwJYc-1" target="c3HBFg0HI2Npq5dBwJYc-7">
          <mxGeometry relative="1" as="geometry" />
        </mxCell>
        <mxCell id="c3HBFg0HI2Npq5dBwJYc-18" style="edgeStyle=none;shape=connector;rounded=0;orthogonalLoop=1;jettySize=auto;html=1;labelBackgroundColor=default;strokeColor=default;align=center;verticalAlign=middle;fontFamily=Helvetica;fontSize=11;fontColor=default;endArrow=none;endFill=0;" edge="1" parent="1" source="c3HBFg0HI2Npq5dBwJYc-1" target="c3HBFg0HI2Npq5dBwJYc-5">
          <mxGeometry relative="1" as="geometry" />
        </mxCell>
        <mxCell id="c3HBFg0HI2Npq5dBwJYc-1" value="Lector" style="shape=umlActor;html=1;verticalLabelPosition=bottom;verticalAlign=top;align=center;" vertex="1" parent="1">
          <mxGeometry x="123" y="250" width="30" height="60" as="geometry" />
        </mxCell>
        <mxCell id="c3HBFg0HI2Npq5dBwJYc-2" value="Pedir Libro" style="ellipse;whiteSpace=wrap;html=1;fillColor=#d5e8d4;strokeColor=#82b366;" vertex="1" parent="1">
          <mxGeometry x="620" y="100" width="140" height="70" as="geometry" />
        </mxCell>
        <mxCell id="c3HBFg0HI2Npq5dBwJYc-5" value="Devolver Libro" style="ellipse;whiteSpace=wrap;html=1;fillColor=#dae8fc;strokeColor=#6c8ebf;" vertex="1" parent="1">
          <mxGeometry x="230" y="300" width="140" height="70" as="geometry" />
        </mxCell>
        <mxCell id="c3HBFg0HI2Npq5dBwJYc-6" value="Comprobar Máximo Libros Prestados" style="ellipse;whiteSpace=wrap;html=1;fillColor=#dae8fc;strokeColor=#6c8ebf;" vertex="1" parent="1">
          <mxGeometry x="450" y="180" width="140" height="70" as="geometry" />
        </mxCell>
        <mxCell id="c3HBFg0HI2Npq5dBwJYc-7" value="Comprobar Ausencia de Multas" style="ellipse;whiteSpace=wrap;html=1;fillColor=#dae8fc;strokeColor=#6c8ebf;" vertex="1" parent="1">
          <mxGeometry x="230" y="180" width="140" height="70" as="geometry" />
        </mxCell>
        <mxCell id="c3HBFg0HI2Npq5dBwJYc-8" value="Cancelar Prestamo" style="ellipse;whiteSpace=wrap;html=1;fillColor=#f8cecc;strokeColor=#b85450;" vertex="1" parent="1">
          <mxGeometry x="620" y="260" width="140" height="70" as="geometry" />
        </mxCell>
        <mxCell id="c3HBFg0HI2Npq5dBwJYc-15" value="&amp;lt;&amp;lt;extend&amp;gt;&amp;gt;" style="edgeStyle=none;html=1;startArrow=open;endArrow=none;startSize=12;verticalAlign=bottom;dashed=1;labelBackgroundColor=none;rounded=0;strokeColor=default;align=center;fontFamily=Helvetica;fontSize=11;fontColor=default;shape=connector;" edge="1" parent="1" source="c3HBFg0HI2Npq5dBwJYc-8" target="c3HBFg0HI2Npq5dBwJYc-6">
          <mxGeometry width="160" relative="1" as="geometry">
            <mxPoint x="370" y="335" as="sourcePoint" />
            <mxPoint x="530" y="335" as="targetPoint" />
          </mxGeometry>
        </mxCell>
        <mxCell id="c3HBFg0HI2Npq5dBwJYc-16" value="&amp;lt;&amp;lt;extend&amp;gt;&amp;gt;" style="edgeStyle=none;html=1;startArrow=open;endArrow=none;startSize=12;verticalAlign=bottom;dashed=1;labelBackgroundColor=none;rounded=0;strokeColor=default;align=center;fontFamily=Helvetica;fontSize=11;fontColor=default;shape=connector;" edge="1" parent="1" source="c3HBFg0HI2Npq5dBwJYc-2" target="c3HBFg0HI2Npq5dBwJYc-6">
          <mxGeometry width="160" relative="1" as="geometry">
            <mxPoint x="649" y="281" as="sourcePoint" />
            <mxPoint x="581" y="249" as="targetPoint" />
          </mxGeometry>
        </mxCell>
        <mxCell id="c3HBFg0HI2Npq5dBwJYc-17" value="&amp;lt;&amp;lt;extend&amp;gt;&amp;gt;" style="edgeStyle=none;html=1;startArrow=open;endArrow=none;startSize=12;verticalAlign=bottom;dashed=1;labelBackgroundColor=none;rounded=0;align=center;fontFamily=Helvetica;fontSize=11;fontColor=default;shape=connector;" edge="1" parent="1" source="c3HBFg0HI2Npq5dBwJYc-6" target="c3HBFg0HI2Npq5dBwJYc-7">
          <mxGeometry width="160" relative="1" as="geometry">
            <mxPoint x="649" y="169" as="sourcePoint" />
            <mxPoint x="581" y="201" as="targetPoint" />
          </mxGeometry>
        </mxCell>
        <mxCell id="c3HBFg0HI2Npq5dBwJYc-24" style="edgeStyle=none;shape=connector;rounded=0;orthogonalLoop=1;jettySize=auto;html=1;labelBackgroundColor=default;strokeColor=default;align=center;verticalAlign=middle;fontFamily=Helvetica;fontSize=11;fontColor=default;endArrow=none;endFill=0;" edge="1" parent="1" source="c3HBFg0HI2Npq5dBwJYc-19" target="c3HBFg0HI2Npq5dBwJYc-23">
          <mxGeometry relative="1" as="geometry" />
        </mxCell>
        <mxCell id="c3HBFg0HI2Npq5dBwJYc-25" style="edgeStyle=none;shape=connector;rounded=0;orthogonalLoop=1;jettySize=auto;html=1;labelBackgroundColor=default;strokeColor=default;align=center;verticalAlign=middle;fontFamily=Helvetica;fontSize=11;fontColor=default;endArrow=none;endFill=0;" edge="1" parent="1" source="c3HBFg0HI2Npq5dBwJYc-19" target="c3HBFg0HI2Npq5dBwJYc-22">
          <mxGeometry relative="1" as="geometry" />
        </mxCell>
        <mxCell id="c3HBFg0HI2Npq5dBwJYc-26" style="edgeStyle=none;shape=connector;rounded=0;orthogonalLoop=1;jettySize=auto;html=1;labelBackgroundColor=default;strokeColor=default;align=center;verticalAlign=middle;fontFamily=Helvetica;fontSize=11;fontColor=default;endArrow=none;endFill=0;" edge="1" parent="1" source="c3HBFg0HI2Npq5dBwJYc-19" target="c3HBFg0HI2Npq5dBwJYc-21">
          <mxGeometry relative="1" as="geometry" />
        </mxCell>
        <mxCell id="c3HBFg0HI2Npq5dBwJYc-19" value="Libro" style="shape=umlActor;html=1;verticalLabelPosition=bottom;verticalAlign=top;align=center;" vertex="1" parent="1">
          <mxGeometry x="970" y="265" width="30" height="60" as="geometry" />
        </mxCell>
        <mxCell id="c3HBFg0HI2Npq5dBwJYc-21" value="Comprobar Devolución" style="ellipse;whiteSpace=wrap;html=1;fillColor=#fff2cc;strokeColor=#d6b656;" vertex="1" parent="1">
          <mxGeometry x="780" y="345" width="140" height="70" as="geometry" />
        </mxCell>
        <mxCell id="c3HBFg0HI2Npq5dBwJYc-22" value="Entregar Libro" style="ellipse;whiteSpace=wrap;html=1;fillColor=#fff2cc;strokeColor=#d6b656;" vertex="1" parent="1">
          <mxGeometry x="780" y="255" width="140" height="70" as="geometry" />
        </mxCell>
        <mxCell id="c3HBFg0HI2Npq5dBwJYc-23" value="Añadir Multas" style="ellipse;whiteSpace=wrap;html=1;fillColor=#fff2cc;strokeColor=#d6b656;" vertex="1" parent="1">
          <mxGeometry x="780" y="175" width="140" height="70" as="geometry" />
        </mxCell>
      </root>
    </mxGraphModel>
  </diagram>
</mxfile>
